<?xml version="1.0" encoding="utf-8"?>
<!-- Generator: Adobe Illustrator 18.0.0, SVG Export Plug-In . SVG Version: 6.00 Build 0)  -->
<!DOCTYPE svg PUBLIC "-//W3C//DTD SVG 1.1//EN" "http://www.w3.org/Graphics/SVG/1.1/DTD/svg11.dtd">
<svg version="1.1" id="Layer_1" xmlns="http://www.w3.org/2000/svg" xmlns:xlink="http://www.w3.org/1999/xlink" x="0px" y="0px"
	 viewBox="0 0 64 64" enable-background="new 0 0 64 64" xml:space="preserve">
<g>
	<g>
		<path d="M47.7,25.7c0,0-0.3-2.2-1.3-3.1c-1.2-1.2-2.6-1.3-3.2-1.3C38.7,21,32,21,32,21h0c0,0-6.7,0-11.2,0.3
			c-0.6,0.1-2,0.1-3.2,1.3c-1,0.9-1.3,3.1-1.3,3.1S16,28.3,16,30.8v2.4c0,2.5,0.3,5.1,0.3,5.1s0.3,2.2,1.3,3.1
			c1.2,1.2,2.8,1.2,3.5,1.3C23.7,42.9,32,43,32,43s6.7,0,11.2-0.3c0.6-0.1,2-0.1,3.2-1.3c1-0.9,1.3-3.1,1.3-3.1s0.3-2.5,0.3-5.1
			v-2.4C48,28.3,47.7,25.7,47.7,25.7z M28.7,36.1l0-8.8l8.6,4.4L28.7,36.1z"/>
	</g>
	<g>
		<path d="M32,64C14.4,64,0,49.6,0,32S14.4,0,32,0s32,14.4,32,32S49.6,64,32,64z M32,4C16.6,4,4,16.6,4,32s12.6,28,28,28
			s28-12.6,28-28S47.4,4,32,4z"/>
	</g>
</g>
</svg>
