<?xml version="1.0" encoding="utf-8"?>
<!-- Generator: Adobe Illustrator 18.0.0, SVG Export Plug-In . SVG Version: 6.00 Build 0)  -->
<!DOCTYPE svg PUBLIC "-//W3C//DTD SVG 1.1//EN" "http://www.w3.org/Graphics/SVG/1.1/DTD/svg11.dtd">
<svg version="1.1" id="Layer_1" xmlns="http://www.w3.org/2000/svg" xmlns:xlink="http://www.w3.org/1999/xlink" x="0px" y="0px"
	 viewBox="0 0 64 64" enable-background="new 0 0 64 64" xml:space="preserve">
<g>
	<g id="XMLID_5_">
		<g>
			<g>
				<path d="M32,64C14.4,64,0,49.6,0,32S14.4,0,32,0s32,14.4,32,32S49.6,64,32,64z M32,4C16.6,4,4,16.6,4,32s12.6,28,28,28
					s28-12.6,28-28S47.4,4,32,4z"/>
			</g>
		</g>
	</g>
	<g>
		<g>
			<path d="M25,42.9V21.1c0-1.7,2-2.7,3.3-1.7l13.9,11.2c1.1,0.8,1.1,2.5,0,3.3L28.3,44.6C27,45.6,25,44.6,25,42.9z"/>
		</g>
	</g>
</g>
</svg>
