<?xml version="1.0" encoding="utf-8"?>
<!-- Generator: Adobe Illustrator 18.0.0, SVG Export Plug-In . SVG Version: 6.00 Build 0)  -->
<!DOCTYPE svg PUBLIC "-//W3C//DTD SVG 1.1//EN" "http://www.w3.org/Graphics/SVG/1.1/DTD/svg11.dtd">
<svg version="1.1" id="Layer_1" xmlns="http://www.w3.org/2000/svg" xmlns:xlink="http://www.w3.org/1999/xlink" x="0px" y="0px"
	 viewBox="0 0 64 64" enable-background="new 0 0 64 64" xml:space="preserve">
<path d="M58,12c-2.2,0-4-1.8-4-4s1.8-4,4-4V0H11C6.6,0,3,3.6,3,8v48c0,4.4,3.6,8,8,8h2h2h45V12H58z M11,4h40.1C50.4,5.2,50,6.5,50,8
	s0.4,2.8,1.1,4H13h-2c-2.2,0-4-1.8-4-4S8.8,4,11,4z M11,60c-2.2,0-4-1.8-4-4V14.9c1.2,0.7,2.5,1.1,4,1.1h2v44H11z M56,60H17V16h39
	V60z"/>
</svg>
